<svg width="58" height="24" viewBox="0 0 58 24" fill="none" xmlns="http://www.w3.org/2000/svg">
<path d="M17.5713 24H6.00488L15.9199 5.26074C17.4567 2.35422 21.2903 0 24.4844 0H30.2676L17.5713 24ZM31.3066 24H19.7402L32.4365 0H44.002L31.3066 24ZM47.751 18.7393C46.2142 21.6458 42.3767 24 39.1826 24H33.4004L46.0957 0H57.6621L47.751 18.7393ZM5.7832 0C8.97723 6.82797e-05 11.5664 2.68513 11.5664 6C11.5664 9.31484 8.97721 11.9999 5.7832 12C2.58914 12 3.12316e-05 9.31489 0 6C0 2.68509 2.58912 0 5.7832 0Z" fill="#FFF312"/>
</svg>
