<svg width="69" height="69" viewBox="0 0 69 69" fill="none" xmlns="http://www.w3.org/2000/svg">
<g clip-path="url(#clip0_2903_123)">
<rect width="69" height="69" fill="#FFF312"/>
<path d="M10.7803 34.0049C13.973 34.0049 16.5615 36.6895 16.5615 40.0029C16.5613 43.3162 13.9728 46 10.7803 46C7.58783 45.9999 5.00018 43.3161 5 40.0029C5 36.6896 7.58772 34.005 10.7803 34.0049ZM22.5635 22L35.2539 45.9893H29.4736C26.281 45.9893 22.4482 43.6357 20.9121 40.7305L11.0029 22H22.5635ZM36.293 22L48.9834 45.9893H37.4219L24.7314 22H36.293ZM44.166 22C47.3587 22.0001 51.1934 24.3536 52.7295 27.2588L62.6367 45.9893H51.0762L38.3857 22H44.166Z" fill="#0A0A0A"/>
</g>
<defs>
<clipPath id="clip0_2903_123">
<rect width="69" height="69" fill="white"/>
</clipPath>
</defs>
</svg>
