<svg width="58" height="24" viewBox="0 0 58 24" fill="none" xmlns="http://www.w3.org/2000/svg">
<path d="M5.78027 12.0049C8.97295 12.0049 11.5615 14.6895 11.5615 18.0029C11.5613 21.3162 8.97284 24 5.78027 24C2.58783 23.9999 0.00018331 21.3161 0 18.0029C0 14.6896 2.58772 12.005 5.78027 12.0049ZM17.5635 0L30.2539 23.9893H24.4736C21.281 23.9893 17.4482 21.6357 15.9121 18.7305L6.00293 0H17.5635ZM31.293 0L43.9834 23.9893H32.4219L19.7314 0H31.293ZM39.166 0C42.3587 0.000101766 46.1934 2.35358 47.7295 5.25879L57.6367 23.9893H46.0762L33.3857 0H39.166Z" fill="#0A0A0A"/>
</svg>
